<svg width="1200" height="760" viewBox="0 0 1200 760" fill="none" xmlns="http://www.w3.org/2000/svg">
  <defs>
    <linearGradient id="netBg" x1="90" y1="90" x2="1040" y2="672" gradientUnits="userSpaceOnUse">
      <stop stop-color="#F7FBFF"/>
      <stop offset="1" stop-color="#EAF3FF"/>
    </linearGradient>
    <linearGradient id="netAccent" x1="315" y1="178" x2="852" y2="550" gradientUnits="userSpaceOnUse">
      <stop stop-color="#102A43"/>
      <stop offset="0.55" stop-color="#163A5A"/>
      <stop offset="1" stop-color="#1F4F77"/>
    </linearGradient>
  </defs>

  <rect width="1200" height="760" rx="32" fill="url(#netBg)"/>
  <circle cx="1064" cy="118" r="92" fill="#73C77D" fill-opacity="0.12"/>
  <circle cx="164" cy="646" r="96" fill="#1F4F77" fill-opacity="0.08"/>

  <rect x="442" y="250" width="316" height="236" rx="28" fill="url(#netAccent)"/>
  <rect x="484" y="296" width="108" height="16" rx="8" fill="#FFFFFF" fill-opacity="0.35"/>
  <rect x="484" y="328" width="220" height="58" rx="18" fill="#FFFFFF" fill-opacity="0.14"/>
  <rect x="484" y="408" width="192" height="14" rx="7" fill="#FFFFFF" fill-opacity="0.22"/>
  <rect x="484" y="438" width="154" height="14" rx="7" fill="#FFFFFF" fill-opacity="0.22"/>

  <g stroke="#AEC7DE" stroke-width="8" stroke-linecap="round">
    <path d="M270 186L442 298"/>
    <path d="M270 574L442 438"/>
    <path d="M930 186L758 298"/>
    <path d="M930 574L758 438"/>
  </g>

  <g>
    <rect x="120" y="116" width="200" height="140" rx="24" fill="#FFFFFF"/>
    <rect x="148" y="148" width="88" height="14" rx="7" fill="#D7E5F4"/>
    <rect x="148" y="180" width="126" height="38" rx="14" fill="#73C77D"/>
    <rect x="250" y="180" width="42" height="38" rx="14" fill="#102A43"/>
    <text x="148" y="232" fill="#163A5A" font-family="Arial, sans-serif" font-size="24" font-weight="700">Adquirentes</text>
  </g>

  <g>
    <rect x="120" y="504" width="200" height="140" rx="24" fill="#FFFFFF"/>
    <rect x="148" y="536" width="88" height="14" rx="7" fill="#D7E5F4"/>
    <rect x="148" y="570" width="124" height="14" rx="7" fill="#C7D9EA"/>
    <rect x="148" y="598" width="144" height="14" rx="7" fill="#D7E5F4"/>
    <text x="148" y="632" fill="#163A5A" font-family="Arial, sans-serif" font-size="24" font-weight="700">Recebimentos</text>
  </g>

  <g>
    <rect x="880" y="116" width="200" height="140" rx="24" fill="#FFFFFF"/>
    <rect x="908" y="148" width="88" height="14" rx="7" fill="#D7E5F4"/>
    <rect x="908" y="182" width="138" height="14" rx="7" fill="#C7D9EA"/>
    <rect x="908" y="210" width="118" height="14" rx="7" fill="#D7E5F4"/>
    <text x="908" y="232" fill="#163A5A" font-family="Arial, sans-serif" font-size="24" font-weight="700">Bancos</text>
  </g>

  <g>
    <rect x="880" y="504" width="200" height="140" rx="24" fill="#FFFFFF"/>
    <rect x="908" y="536" width="92" height="14" rx="7" fill="#D7E5F4"/>
    <rect x="908" y="570" width="146" height="40" rx="14" fill="#102A43"/>
    <text x="908" y="632" fill="#163A5A" font-family="Arial, sans-serif" font-size="24" font-weight="700">Auditoria</text>
  </g>

  <text x="522" y="560" fill="#163A5A" font-family="Arial, sans-serif" font-size="18" font-weight="700" text-anchor="middle">Motor de conciliacao e monitoramento</text>
  <text x="642" y="560" fill="#163A5A" font-family="Arial, sans-serif" font-size="18" font-weight="700" text-anchor="middle">operacional em tempo real</text>
</svg>
